<svg width="25" height="25" viewBox="0 0 25 25" fill="none" xmlns="http://www.w3.org/2000/svg">
<path d="M24 1H1V24H24V1ZM23 6.5H18.5V2H23V6.5ZM13 6.5V2H17.5V6.5H13ZM17.5 7.5V12H13V7.5H17.5ZM12 6.5H7.5V2H12V6.5ZM12 7.5V12H7.5V7.5H12ZM6.5 12H2V7.5H6.5V12ZM6.5 13V17.5H2V13H6.5ZM7.5 13H12V17.5H7.5V13ZM12 18.5V23H7.5V18.5H12ZM13 18.5H17.5V23H13V18.5ZM13 17.5V13H17.5V17.5H13ZM18.5 13H23V17.5H18.5V13ZM18.5 12V7.5H23V12H18.5ZM6.5 2V6.5H2V2H6.5ZM2 18.5H6.5V23H2V18.5ZM18.5 23V18.5H23V23H18.5Z" fill="white"/>
</svg>
